<?xml version="1.0" encoding="utf-8"?>
<!-- Generator: Adobe Illustrator 25.0.0, SVG Export Plug-In . SVG Version: 6.00 Build 0)  -->
<svg version="1.1" id="Layer_1" xmlns="http://www.w3.org/2000/svg" xmlns:xlink="http://www.w3.org/1999/xlink" x="0px" y="0px"
	 viewBox="0 0 185.99 63.47" style="enable-background:new 0 0 185.99 63.47;" xml:space="preserve">
<style type="text/css">
	.st0{fill:#E2222D;}
	.st1{fill:#FFFFFF;}
</style>
<g>
	<polygon class="st0" points="138.74,46.64 138.74,63.43 153.4,55.06 153.39,38.18 	"/>
	<polygon class="st0" points="155.06,18.53 155.06,35.31 169.72,26.94 169.71,10.07 	"/>
	<polygon class="st0" points="171.34,46.61 171.34,63.4 185.99,55.03 185.99,38.16 	"/>
	<polygon class="st0" points="122.98,36.75 137.74,45.23 152.45,36.73 137.69,28.33 	"/>
	<polygon class="st0" points="139.43,8.42 154.18,16.9 168.9,8.4 154.13,0 	"/>
	<polygon class="st0" points="155.83,36.72 170.58,45.2 185.3,36.7 170.53,28.3 	"/>
	<path class="st1" d="M88.03,17.21H83.8c-0.21,0-0.39,0.11-0.5,0.29L68.52,44.09L53.73,17.5c-0.1-0.18-0.29-0.29-0.5-0.29h-4.23
		c-0.29,0-0.53,0.21-0.56,0.5l-5.49,45.12c-0.04,0.34,0.22,0.64,0.56,0.64h7.66c0.28,0,0.52-0.21,0.56-0.49l3.29-24.48l12.99,23.03
		c0.22,0.39,0.77,0.39,0.99,0L82,38.5l3.29,24.48c0.04,0.28,0.28,0.49,0.56,0.49h7.66c0.34,0,0.6-0.3,0.56-0.64l-5.49-45.12
		C88.56,17.42,88.32,17.21,88.03,17.21"/>
	<path class="st1" d="M16.86,17.21H0.55c-0.3,0-0.55,0.24-0.55,0.55l0,45.16c0,0.3,0.25,0.55,0.55,0.55h16.3
		c12.75,0,23.19-10.37,23.19-23.2C40.05,27.58,29.61,17.21,16.86,17.21 M16.06,55.41H8.53V25.2h7.53c8.59,0,14.87,6.48,14.87,15.07
		C30.93,48.93,24.65,55.41,16.06,55.41"/>
	<path class="st1" d="M107.89,63.47h-7.45c-0.3,0-0.55-0.25-0.55-0.55V17.76c0-0.3,0.25-0.55,0.55-0.55h7.45
		c0.3,0,0.55,0.25,0.55,0.55v45.16C108.44,63.22,108.19,63.47,107.89,63.47"/>
</g>
</svg>
